<?xml version="1.0" encoding="UTF-8" standalone="no"?>
<svg width="128px" height="128px" viewBox="0 0 128 128" version="1.1" xmlns="http://www.w3.org/2000/svg" xmlns:xlink="http://www.w3.org/1999/xlink">
    <!-- Generator: Sketch 3.8.3 (29802) - http://www.bohemiancoding.com/sketch -->
    <title>icon-repeat-track</title>
    <desc>Created with Sketch.</desc>
    <defs></defs>
    <g id="Icons" stroke="none" stroke-width="1" fill="none" fill-rule="evenodd">
        <g id="icon-repeat-track" fill="#000000">
            <path d="M32.8384525,43.5497382 C25.0632878,43.5497382 18.7643979,49.8528687 18.7643979,57.6281743 L18.7643979,65.6218763 L1.56319402e-13,84.3862742 L1.56319402e-13,54.9424215 C3.08695478e-13,37.5468845 14.1044802,23.4450262 31.4961123,23.4450262 L47.3578309,23.4450262 L47.3578303,43.5497382 L32.8384525,43.5497382 Z M79.0796245,105.8313 L96.5004368,105.8313 C113.901129,105.8313 128,91.729442 128,74.3339182 L108.900524,74.3339182 C108.900524,82.1092237 102.936712,85.7265883 95.1615475,85.7265883 L64.3913551,85.7265883 L38.1989529,85.7265883 L38.1989529,67.6323475 L6.03141361,95.7789443 L38.1989529,123.925541 L38.1989529,105.8313 L79.0796245,105.8313 Z M92.4816754,71.6963351 C111.727787,71.6963351 127.329843,56.094279 127.329843,36.8481675 C127.329843,17.602056 111.727787,2 92.4816754,2 C73.2355639,2 57.6335079,17.602056 57.6335079,36.8481675 C57.6335079,56.094279 73.2355639,71.6963351 92.4816754,71.6963351 Z M99.2687417,57.7068063 L89.7593924,57.7068063 L89.7593924,27.4344399 L80.4188482,30.1634543 L80.4188482,22.961107 L98.3965825,16.7434555 L99.2687417,16.7434555 L99.2687417,57.7068063 Z" id="Icon"></path>
        </g>
    </g>
</svg>