<?xml version="1.0" encoding="UTF-8" standalone="no"?>
<svg width="128px" height="128px" viewBox="0 0 128 128" version="1.1" xmlns="http://www.w3.org/2000/svg" xmlns:xlink="http://www.w3.org/1999/xlink">
    <!-- Generator: Sketch 3.8.3 (29802) - http://www.bohemiancoding.com/sketch -->
    <title>icon-pause</title>
    <desc>Created with Sketch.</desc>
    <defs></defs>
    <g id="Icons" stroke="none" stroke-width="1" fill="none" fill-rule="evenodd">
        <g id="icon-pause" fill="#000000">
            <path d="M15,3.99000747 C15,1.78638719 16.7821387,0 18.9919834,0 L43.299714,0 C45.5044256,0 47.2916975,1.78976973 47.2916975,3.99000747 L47.2916975,123.479994 C47.2916975,125.683614 45.5095587,127.470001 43.299714,127.470001 L18.9919834,127.470001 C16.7872719,127.470001 15,125.680231 15,123.479994 L15,3.99000747 Z M79.5833949,4.00762656 C79.5833949,1.79427553 81.3655337,0 83.5753783,0 L107.883109,0 C110.087821,0 111.875092,1.78973078 111.875092,4.00762656 L111.875092,123.4596 C111.875092,125.672951 110.092954,127.467227 107.883109,127.467227 L83.5753783,127.467227 C81.3706668,127.467227 79.5833949,125.677496 79.5833949,123.4596 L79.5833949,4.00762656 Z" id="Icon"></path>
        </g>
    </g>
</svg>