<?xml version="1.0" encoding="UTF-8" standalone="no"?>
<svg width="128px" height="128px" viewBox="0 0 128 128" version="1.1" xmlns="http://www.w3.org/2000/svg" xmlns:xlink="http://www.w3.org/1999/xlink">
    <!-- Generator: Sketch 3.8.3 (29802) - http://www.bohemiancoding.com/sketch -->
    <title>icon-repeat</title>
    <desc>Created with Sketch.</desc>
    <defs></defs>
    <g id="Icons" stroke="none" stroke-width="1" fill="none" fill-rule="evenodd">
        <g id="icon-repeat" fill="#000000">
            <path d="M38.1989529,105.480515 L79.0796245,105.480515 L96.5004368,105.480515 C113.901129,105.480515 128,91.3786567 128,73.9831328 L128,44.539267 L109.235602,63.3036649 L109.235602,71.2973669 C109.235602,79.0726724 102.936712,85.375803 95.1615475,85.375803 L64.3913551,85.375803 L38.1989529,85.375803 L38.1989529,67.2815621 L6.03141361,95.428159 L38.1989529,123.574756 L38.1989529,105.480515 Z M48.9203755,23.0942408 L31.4995632,23.0942408 C14.0988709,23.0942408 3.80940189e-14,37.1960992 3.80940189e-14,54.591623 L0,84.0354888 L18.7643979,65.2710909 L18.7643979,57.2773889 C18.7643979,49.5020834 25.0632878,43.1989529 32.8384525,43.1989529 L63.6086449,43.1989529 L89.8010471,43.1989529 L89.8010471,61.2931937 L121.968586,33.1465969 L89.8010471,5 L89.8010471,23.0942408 L48.9203755,23.0942408 Z" id="Icon"></path>
        </g>
    </g>
</svg>