<?xml version="1.0" encoding="UTF-8" standalone="no"?>
<svg width="128px" height="128px" viewBox="0 0 128 128" version="1.1" xmlns="http://www.w3.org/2000/svg" xmlns:xlink="http://www.w3.org/1999/xlink">
    <!-- Generator: Sketch 3.8.3 (29802) - http://www.bohemiancoding.com/sketch -->
    <title>icon-facebook</title>
    <desc>Created with Sketch.</desc>
    <defs></defs>
    <g id="Icons" stroke="none" stroke-width="1" fill="none" fill-rule="evenodd">
        <g id="icon-facebook" fill="#000000">
            <path d="M120.935596,128.00048 C124.837085,128.00048 128,124.837564 128,120.936076 L128,7.06440409 C128,3.16195629 124.837085,0 120.935596,0 L7.06488368,0 C3.16195629,0 0,3.16195629 0,7.06440409 L0,120.936076 C0,124.837564 3.16195629,128.00048 7.06488368,128.00048 L120.935596,128.00048 Z M88.4259085,127.851806 L88.4259085,78.2834769 L105.063947,78.2834769 L107.554953,58.9654731 L88.4259085,58.9654731 L88.4259085,46.6317813 C88.4259085,41.0387683 89.9788305,37.2274432 97.9995429,37.2274432 L108.22926,37.2226473 L108.22926,19.9448318 C106.459083,19.7098313 100.387436,19.1837178 93.3230321,19.1837178 C78.5741102,19.1837178 68.4767603,28.186157 68.4767603,44.7191646 L68.4767603,58.9654731 L51.7960381,58.9654731 L51.7960381,78.2834769 L68.4767603,78.2834769 L68.4767603,127.851806 L88.4259085,127.851806 Z" id="Icon"></path>
        </g>
    </g>
</svg>