<?xml version="1.0" encoding="UTF-8" standalone="no"?>
<svg width="128px" height="128px" viewBox="0 0 128 128" version="1.1" xmlns="http://www.w3.org/2000/svg" xmlns:xlink="http://www.w3.org/1999/xlink">
    <!-- Generator: Sketch 3.8.3 (29802) - http://www.bohemiancoding.com/sketch -->
    <title>icon-queue</title>
    <desc>Created with Sketch.</desc>
    <defs></defs>
    <g id="Icons" stroke="none" stroke-width="1" fill="none" fill-rule="evenodd">
        <g id="icon-queue" fill="#000000">
            <path d="M0,24.9933036 C0,19.4741544 4.48053479,15 9.99063018,15 L118.00937,15 C123.527043,15 128,19.484375 128,24.9933036 L128,41.578125 C128,47.0972742 123.519465,51.5714286 118.00937,51.5714286 L9.99063018,51.5714286 C4.47295749,51.5714286 0,47.0870536 0,41.578125 L0,24.9933036 Z M0,76.4879483 C0,72.7476071 3.03781319,69.7154615 6.76895117,69.7154615 L121.231049,69.7154615 C124.969437,69.7154615 128,72.7552179 128,76.4879483 C128,80.2282894 124.962187,83.260435 121.231049,83.260435 L6.76895117,83.260435 C3.03056267,83.260435 0,80.2206786 0,76.4879483 Z M0,106.261023 C0,102.520682 3.03781319,99.4885362 6.76895117,99.4885362 L121.231049,99.4885362 C124.969437,99.4885362 128,102.528293 128,106.261023 C128,110.001364 124.962187,113.03351 121.231049,113.03351 L6.76895117,113.03351 C3.03056267,113.03351 0,109.993753 0,106.261023 Z" id="Icon"></path>
        </g>
    </g>
</svg>