<?xml version="1.0" encoding="UTF-8" standalone="no"?>
<svg width="128px" height="128px" viewBox="0 0 128 128" version="1.1" xmlns="http://www.w3.org/2000/svg" xmlns:xlink="http://www.w3.org/1999/xlink">
    <!-- Generator: Sketch 3.8.3 (29802) - http://www.bohemiancoding.com/sketch -->
    <title>itunes-icon</title>
    <desc>Created with Sketch.</desc>
    <defs></defs>
    <g id="Icons" stroke="none" stroke-width="1" fill="none" fill-rule="evenodd">
        <g id="itunes-icon" fill="#000000">
            <path d="M98.5647779,68.0701489 C98.4199715,51.8992866 111.742165,44.0321093 112.351351,43.6658441 C104.806435,32.6126607 93.1120659,31.1024437 89.0025585,30.9820277 C79.1806862,29.9434399 69.6534201,36.887428 64.6501074,36.887428 C59.5469282,36.887428 51.8422261,31.0823743 43.5383249,31.2529636 C32.8526072,31.4185356 22.8559684,37.6350105 17.3732964,47.2883581 C6.05841959,66.9713531 14.4971406,95.8962746 25.3376515,111.806236 C30.7604035,119.598153 37.0969343,128.298207 45.3908489,127.99215 C53.5050037,127.655989 56.5359526,122.794194 66.327865,122.794194 C76.0298975,122.794194 78.8760933,127.99215 87.3347876,127.796474 C96.0431483,127.655989 101.52582,119.969436 106.758826,112.107276 C113.02545,103.176424 115.542086,94.3810402 115.641953,93.9294802 C115.437227,93.8592376 98.7295577,87.4521041 98.5647779,68.0701489 L98.5647779,68.0701489 L98.5647779,68.0701489 L98.5647779,68.0701489 Z M82.5861346,20.5158723 C86.9503015,15.0319279 89.9363105,7.57115462 89.1074184,0 C82.7908609,0.280970616 74.8914191,4.39016587 70.3424991,9.75369423 C66.3178783,14.4800214 62.7226836,22.2267826 63.6514422,29.5119493 C70.7469585,30.0437865 78.0322212,25.914522 82.5861346,20.5158723 L82.5861346,20.5158723 L82.5861346,20.5158723 L82.5861346,20.5158723 Z" id="Icon"></path>
        </g>
    </g>
</svg>