<?xml version="1.0" encoding="UTF-8" standalone="no"?>
<svg width="128px" height="128px" viewBox="0 0 128 128" version="1.1" xmlns="http://www.w3.org/2000/svg" xmlns:xlink="http://www.w3.org/1999/xlink">
    <!-- Generator: Sketch 3.8.3 (29802) - http://www.bohemiancoding.com/sketch -->
    <title>link-icon</title>
    <desc>Created with Sketch.</desc>
    <defs></defs>
    <g id="Icons" stroke="none" stroke-width="1" fill="none" fill-rule="evenodd">
        <g id="link-icon" fill="#000000">
            <path d="M75.722241,98.9090909 C76.6674505,98.9090909 77.6054115,98.88 78.536124,98.8232727 C78.0852648,99.3323636 77.6155595,99.8312727 77.1284576,100.32 L59.7319632,117.774545 C46.1438514,131.408 24.1140907,131.408 10.5274286,117.774545 C-3.06068323,104.141091 -3.06068323,82.0392727 10.5274286,68.4058182 L27.923923,50.9512727 C28.4110248,50.464 28.9082746,49.9927273 29.4142227,49.5389091 C40.0782737,40.0145455 55.1813303,38.2109091 67.5270424,44.1265455 C70.9990928,45.792 74.2551366,48.0654545 77.1284576,50.9498182 C80.004678,53.8341818 82.2705714,57.1010909 83.9290372,60.5832727 C81.8327596,62.6938182 78.9275451,64 75.722241,64 C74.5392794,64 73.3954599,63.8225455 72.3183269,63.4909091 C71.3818156,61.9563636 70.2510435,60.5076364 68.9289099,59.1796364 C67.6038769,57.8516364 66.1599679,56.7185455 64.6319758,55.7774545 C55.698876,50.2850909 43.8605615,51.4181818 36.1249204,59.1796364 L30.9030726,64.4203636 L18.728426,76.6341818 C9.67065124,85.7221818 9.67065124,100.458182 18.728426,109.549091 C27.7876504,118.637091 42.4746408,118.637091 51.5324156,109.549091 L63.7056125,97.3338182 C67.5386401,98.3607273 71.568828,98.9090909 75.722241,98.9090909 L75.722241,98.9090909 Z M68.5171929,10.224 L51.1206985,27.6785455 C50.6335967,28.1672727 50.165341,28.6661818 49.7130322,29.1752727 C50.6451943,29.1185455 51.5817056,29.0909091 52.5269151,29.0909091 C56.6817779,29.0909091 60.710516,29.6392727 64.5420939,30.6676364 L76.7152909,18.4538182 C85.775965,9.36436364 100.462955,9.36436364 109.52073,18.4538182 C118.578505,27.5418182 118.578505,42.2778182 109.52073,51.3672727 L97.3460835,63.5810909 L92.1242358,68.8218182 C84.3885946,76.5803636 72.5502802,77.7134545 63.6157306,72.2225455 C62.0862888,71.2829091 60.6438295,70.1483636 59.3187965,68.8218182 C57.9952132,67.4923636 56.8658908,66.0436364 55.9293795,64.5105455 C54.855146,64.1789091 53.7113265,64 52.5269151,64 C49.3201614,64 46.4178462,65.3047273 44.3186692,67.4152727 C45.9785847,70.8989091 48.2444781,74.1629091 51.1192488,77.0487273 C53.9940195,79.9316364 57.2486137,82.208 60.7192143,83.872 C73.0649265,89.7890909 88.167983,87.9854545 98.8320341,78.4596364 C99.3423312,78.0058182 99.8366816,77.536 100.323783,77.0472727 L117.720278,59.5927273 C131.309839,45.9592727 131.309839,23.8574545 117.721728,10.224 C104.133616,-3.408 82.1053047,-3.408 68.5171929,10.224 Z" id="Icon"></path>
        </g>
    </g>
</svg>