<?xml version="1.0" encoding="UTF-8" standalone="no"?>
<svg width="128px" height="128px" viewBox="0 0 128 128" version="1.1" xmlns="http://www.w3.org/2000/svg" xmlns:xlink="http://www.w3.org/1999/xlink">
    <!-- Generator: Sketch 3.8.3 (29802) - http://www.bohemiancoding.com/sketch -->
    <title>twitter-icon</title>
    <desc>Created with Sketch.</desc>
    <defs></defs>
    <g id="Icons" stroke="none" stroke-width="1" fill="none" fill-rule="evenodd">
        <g id="twitter-icon" fill="#000000">
            <path d="M112.917078,28.4491166 C118.339252,25.1989027 122.502915,20.0524964 124.463718,13.9205384 C119.389883,16.9296317 113.769662,19.1151688 107.787995,20.293149 C102.997418,15.1893485 96.1725301,12 88.6195984,12 C74.1163027,12 62.358038,23.7577966 62.358038,38.2601558 C62.358038,40.3183438 62.5907312,42.3226892 63.0383262,44.2446322 C41.2129193,43.1495227 21.8628626,32.6947145 8.910699,16.8069644 C6.65025056,20.6854969 5.35522148,25.1965617 5.35522148,30.0091444 C5.35522148,39.119763 9.99176268,47.1577453 17.0381067,51.8668569 C12.733048,51.7306119 8.68409232,50.5493544 5.14312886,48.5824646 C5.14125608,48.6920224 5.14125608,48.8020484 5.14125608,48.9125425 C5.14125608,61.6362266 14.1933502,72.2502213 26.2067815,74.6623651 C24.0029847,75.2625919 21.6830755,75.5833059 19.2877867,75.5833059 C17.5957277,75.5833059 15.9504883,75.4189692 14.3473865,75.1123011 C17.6888986,85.5455723 27.3871027,93.1378324 38.8784959,93.349925 C29.8910128,100.392992 18.5677018,104.591302 6.26445737,104.591302 C4.14493581,104.591302 2.05444237,104.46723 0,104.224705 C11.6215516,111.67557 25.425363,116.022766 40.2554592,116.022766 C88.5582647,116.022766 114.971989,76.0074911 114.971989,41.3053001 C114.971989,40.1666484 114.946706,39.0340832 114.896141,37.9080727 C120.026629,34.2055818 124.479169,29.5802773 128,24.3140129 C123.29042,26.4026336 118.229226,27.8142434 112.917078,28.4491166 Z" id="Icon"></path>
        </g>
    </g>
</svg>