<?xml version="1.0" encoding="UTF-8" standalone="no"?>
<svg width="128px" height="128px" viewBox="0 0 128 128" version="1.1" xmlns="http://www.w3.org/2000/svg" xmlns:xlink="http://www.w3.org/1999/xlink">
    <!-- Generator: Sketch 3.8.3 (29802) - http://www.bohemiancoding.com/sketch -->
    <title>youtube-icon</title>
    <desc>Created with Sketch.</desc>
    <defs>
        <path d="M53.2637333,77.0976966 L53.2591111,47.8570805 L81.3599111,62.5276898 L53.2637333,77.0976966 Z M114.962311,42.7911122 C114.962311,42.7911122 113.945422,35.6194311 110.826578,32.4602835 C106.873422,28.315926 102.439556,28.2962681 100.406933,28.0534346 C85.8538667,27 64.0231111,27 64.0231111,27 L63.9768889,27 C63.9768889,27 42.1472889,27 27.5930667,28.0534346 C25.5604444,28.2962681 21.1288889,28.315926 17.1734222,32.4602835 C14.0545778,35.6194311 13.04,42.7911122 13.04,42.7911122 C13.04,42.7911122 12,51.2128075 12,59.6345027 L12,67.5312152 C12,75.951754 13.04,84.3734493 13.04,84.3734493 C13.04,84.3734493 14.0545778,91.5451304 17.1734222,94.704278 C21.1288889,98.8497918 26.3254222,98.7168116 28.64,99.1515991 C36.9611556,99.9506368 64,100.198096 64,100.198096 C64,100.198096 85.8538667,100.164561 100.406933,99.1122832 C102.439556,98.8694498 106.873422,98.8497918 110.826578,94.704278 C113.945422,91.5451304 114.962311,84.3734493 114.962311,84.3734493 C114.962311,84.3734493 116,75.951754 116,67.5312152 L116,59.6345027 C116,51.2128075 114.962311,42.7911122 114.962311,42.7911122 L114.962311,42.7911122 Z" id="path-1"></path>
        <mask id="mask-2" maskContentUnits="userSpaceOnUse" maskUnits="objectBoundingBox" x="-12" y="-12" width="128" height="97.1980956">
            <rect x="0" y="15" width="128" height="97.1980956" fill="white"></rect>
            <use xlink:href="#path-1" fill="black"></use>
        </mask>
    </defs>
    <g id="Icons" stroke="none" stroke-width="1" fill="none" fill-rule="evenodd">
        <g id="youtube-icon" stroke="#000000" stroke-width="24">
            <use id="Icon" mask="url(#mask-2)" xlink:href="#path-1"></use>
        </g>
    </g>
</svg>