<svg width="553" height="337" viewBox="0 0 553 337" xmlns="http://www.w3.org/2000/svg"><title>preview</title><defs><radialGradient cx="35.581%" cy="11.348%" fx="35.581%" fy="11.348%" r="81.257%" id="a"><stop stop-color="#E87FB4" offset="0%"/><stop stop-color="#DA589A" offset="54.422%"/><stop stop-color="#9B50BA" offset="100%"/></radialGradient></defs><g fill="none" fill-rule="evenodd"><path d="M0 0l113.51 68L0 136" transform="translate(247 201)" fill="url(#a)"/><path d="M400.478 33.688c-12.249-7.275-32.453-7.943-44.146-4.394a3.553 3.553 0 1 1-2.064-6.802c13.423-4.075 35.737-3.288 49.838 5.083a3.554 3.554 0 0 1-3.628 6.113zm-.4 10.774a2.964 2.964 0 0 1-4.076.976c-10.212-6.277-25.784-8.096-37.866-4.429a2.967 2.967 0 0 1-3.697-1.973 2.967 2.967 0 0 1 1.976-3.695c13.801-4.188 30.959-2.16 42.688 5.048a2.963 2.963 0 0 1 .974 4.073zm-4.65 10.347a2.367 2.367 0 0 1-3.257.789c-8.924-5.454-20.155-6.686-33.383-3.665a2.368 2.368 0 1 1-1.054-4.616c14.475-3.31 26.891-1.885 36.908 4.235a2.369 2.369 0 0 1 .785 3.257zM378 0c-20.986 0-38 17.013-38 38 0 20.988 17.014 38 38 38 20.987 0 38-17.012 38-38 0-20.987-17.013-38-38-38zM506.313 181.798l-.003-21.368 20.535 10.72-20.532 10.648zm45.087-25.07s-.743-5.24-3.022-7.55c-2.889-3.028-6.129-3.042-7.614-3.22-10.635-.77-26.588-.77-26.588-.77h-.034s-15.953 0-26.588.77c-1.486.178-4.724.192-7.615 3.22-2.279 2.31-3.02 7.55-3.02 7.55s-.76 6.154-.76 12.309v5.77c0 6.154.76 12.308.76 12.308s.741 5.24 3.02 7.55c2.89 3.029 6.688 2.932 8.38 3.25 6.08.583 25.84.764 25.84.764s15.97-.024 26.605-.793c1.485-.178 4.725-.192 7.614-3.221 2.28-2.31 3.022-7.55 3.022-7.55s.759-6.154.759-12.308v-5.77c0-6.155-.759-12.309-.759-12.309zM131.306 42.904c-.24 0-.432.185-.463.45L130 49.75l.843 6.285c.031.265.222.45.463.45.233 0 .423-.184.46-.447v-.002.002l1-6.288-1-6.396c-.036-.264-.228-.45-.46-.45zm4.743-3.494c-.04-.275-.237-.465-.48-.465-.244 0-.446.196-.48.465l-1.133 10.34 1.133 10.11c.033.271.235.467.48.467.242 0 .44-.19.48-.464l1.289-10.114-1.289-10.34zm17.867-9.538c-.466 0-.85.38-.872.863l-.903 19.023.903 12.294c.023.48.406.859.872.859.462 0 .846-.38.873-.862v.004l1.02-12.295-1.02-19.023c-.027-.483-.41-.863-.873-.863zm-9.247 6.612c-.358 0-.65.285-.678.665l-1.017 12.604 1.017 12.195c.028.377.32.662.678.662.353 0 .645-.285.676-.662l1.156-12.195-1.156-12.607c-.031-.377-.323-.662-.676-.662zm18.644 26.426c.576 0 1.045-.465 1.069-1.059l.886-12.087-.885-25.326c-.023-.594-.492-1.059-1.07-1.059-.58 0-1.05.466-1.07 1.06l-.785 25.324.786 12.092c.018.59.488 1.055 1.069 1.055zm19.238.057a1.48 1.48 0 0 0 1.464-1.455v.008-.008l.617-11.74-.617-29.25a1.48 1.48 0 0 0-1.464-1.455c-.795 0-1.451.652-1.464 1.456l-.552 29.239.552 11.757c.013.795.67 1.448 1.464 1.448zm-9.692-.046c.69 0 1.247-.554 1.266-1.26v.01l.752-11.904-.753-25.51A1.273 1.273 0 0 0 172.857 23c-.695 0-1.252.552-1.267 1.258l-.669 25.51.67 11.902a1.268 1.268 0 0 0 1.268 1.252zm-23.585-.112c.41 0 .743-.328.774-.76l1.09-12.296-1.09-11.697c-.03-.432-.362-.757-.774-.757-.417 0-.749.328-.775.762l-.959 11.692.959 12.295c.027.433.358.761.775.761zm-9.174-.673c.3 0 .544-.237.578-.564l1.223-11.821-1.221-12.268c-.036-.328-.28-.565-.58-.565-.304 0-.547.238-.578.565l-1.076 12.268 1.076 11.819c.03.328.273.566.578.566zm37.586-38.303c-.75 0-1.352.595-1.367 1.358l-.61 24.578.61 11.827a1.366 1.366 0 0 0 2.731-.009v.01l.685-11.827-.684-24.582a1.367 1.367 0 0 0-1.365-1.355zm-19.09 39.101c.52 0 .947-.422.972-.96l.953-12.212-.953-23.374c-.026-.54-.453-.96-.971-.96a.985.985 0 0 0-.973.96l-.843 23.374.845 12.217a.982.982 0 0 0 .97.955zm10.638-1.152v-.007l.819-12.01-.819-26.179a1.177 1.177 0 0 0-1.167-1.16c-.637 0-1.151.509-1.168 1.16l-.727 26.178.728 12.016c.017.644.53 1.153 1.167 1.153.635 0 1.146-.509 1.167-1.156v.005zm61.917-27.107c-1.943 0-3.798.392-5.487 1.1C224.535 23.011 213.814 13 200.734 13c-3.2 0-6.319.629-9.074 1.693-1.07.413-1.356.839-1.365 1.665v44.945a1.715 1.715 0 0 0 1.531 1.673c.036.004 39.07.024 39.324.024 7.834 0 14.186-6.34 14.186-14.162 0-7.821-6.35-14.163-14.185-14.163zm-43.756-18.357c-.853 0-1.552.699-1.565 1.557l-.64 31.9.642 11.578c.01.846.71 1.543 1.563 1.543.85 0 1.549-.697 1.561-1.555v.014l.696-11.58-.696-31.903a1.576 1.576 0 0 0-1.561-1.554z" fill="#A0A0A0"/><g fill="#A0A0A0"><path d="M.17 193.886H17.99v-5.4H.17zM.17 186.868H17.99v-5.4H.17zM.17 179.849H17.99v-5.4H.17zM.17 172.83H17.99v-5.398H.17zM.17 165.81H17.99v-5.398H.17zM20.149 193.886h17.818v-5.4H20.149zM20.149 186.868h17.818v-5.4H20.149zM20.149 179.849h17.818v-5.4H20.149zM40.128 193.886h17.816v-5.4H40.128zM40.128 186.868h17.816v-5.4H40.128zM40.128 179.849h17.816v-5.4H40.128zM40.128 172.83h17.816v-5.398H40.128zM40.128 165.81h17.816v-5.398H40.128zM40.128 158.79h17.816v-5.4H40.128zM40.128 151.772h17.816v-5.4H40.128zM60.105 193.886h17.82v-5.4h-17.82zM60.105 186.868h17.82v-5.4h-17.82zM60.105 179.849h17.82v-5.4h-17.82zM60.105 172.83h17.82v-5.398h-17.82zM60.105 165.81h17.82v-5.398h-17.82zM80.083 193.886h17.819v-5.4h-17.82zM80.083 186.868h17.819v-5.4h-17.82zM80.083 179.848h17.819v-5.4h-17.82zM80.083 172.83h17.819v-5.401h-17.82zM80.083 165.81h17.819v-5.4h-17.82zM80.083 158.788h17.819v-5.398h-17.82zM80.083 151.768h17.819v-5.398h-17.82zM80.083 144.75h17.819v-5.4h-17.82z"/></g></g></svg>
