<svg width="16" height="20" viewBox="0 0 16 20" xmlns="http://www.w3.org/2000/svg"><path d="M13.364 10.509c-.023-2.497 2.034-3.711 2.128-3.768-1.165-1.706-2.97-1.94-3.605-1.958-1.516-.16-2.987.912-3.759.912-.788 0-1.977-.897-3.26-.87C3.22 4.85 1.677 5.81.83 7.3c-1.747 3.039-.444 7.504 1.229 9.96.837 1.203 1.815 2.546 3.096 2.5 1.252-.053 1.72-.803 3.232-.803 1.498 0 1.937.802 3.243.772 1.344-.022 2.19-1.208 2.999-2.422.967-1.379 1.356-2.737 1.371-2.806-.032-.011-2.61-1-2.636-3.992zm-2.467-7.342C11.57 2.321 12.032 1.17 11.904 0c-.975.043-2.195.678-2.897 1.506-.622.73-1.177 1.925-1.033 3.05 1.095.082 2.22-.555 2.923-1.389z" fill="#A0A0A0" fill-rule="evenodd"/></svg>