<svg width="16" height="16" viewBox="0 0 16 16" xmlns="http://www.w3.org/2000/svg">
    <path d="M14.118 11.765a.908.908 0 0 0-.275-.667l-2.04-2.04a.908.908 0 0 0-.666-.274.934.934 0 0 0-.706.314l.187.181c.104.102.174.172.21.211.036.04.085.102.147.186a.789.789 0 0 1 .162.52.908.908 0 0 1-.274.667.908.908 0 0 1-.667.274.789.789 0 0 1-.52-.162 2.334 2.334 0 0 1-.186-.147 6.063 6.063 0 0 1-.21-.21 26.951 26.951 0 0 0-.182-.187.951.951 0 0 0-.323.716c0 .261.091.484.274.667l2.02 2.03a.904.904 0 0 0 .666.264.944.944 0 0 0 .667-.255l1.441-1.431a.896.896 0 0 0 .275-.657zM7.225 4.853a.908.908 0 0 0-.274-.667l-2.02-2.03a.908.908 0 0 0-.666-.274.947.947 0 0 0-.667.265L2.157 3.578a.896.896 0 0 0-.275.657c0 .262.092.484.275.667l2.04 2.04a.904.904 0 0 0 .666.264c.274 0 .51-.101.706-.304l-.187-.181a6.063 6.063 0 0 1-.21-.211 2.334 2.334 0 0 1-.147-.186.789.789 0 0 1-.162-.52c0-.262.091-.484.274-.667a.908.908 0 0 1 .667-.274.789.789 0 0 1 .52.162c.084.062.147.11.186.147.039.036.11.106.21.21l.182.187a.951.951 0 0 0 .323-.716zM16 11.765c0 .784-.278 1.447-.833 1.99l-1.442 1.431c-.542.543-1.205.814-1.99.814-.79 0-1.457-.278-2-.833l-2.02-2.03c-.542-.542-.813-1.206-.813-1.99 0-.804.288-1.487.863-2.049l-.863-.863a2.746 2.746 0 0 1-2.04.863 2.723 2.723 0 0 1-2-.823L.825 6.235a2.723 2.723 0 0 1-.824-2c0-.784.278-1.447.833-1.99L2.275.814C2.817.27 3.48 0 4.265 0c.79 0 1.457.278 2 .833l2.02 2.03c.542.542.813 1.206.813 1.99 0 .804-.288 1.487-.863 2.049l.863.863a2.746 2.746 0 0 1 2.04-.863c.784 0 1.45.274 2 .823l2.038 2.04c.55.549.824 1.215.824 2z"
          fill="#A0A0A0" fill-rule="evenodd"/>
</svg>
