<svg width="18" height="15" viewBox="0 0 18 15" xmlns="http://www.w3.org/2000/svg"><path d="M15.879 2.313A3.704 3.704 0 0 0 17.503.27a7.396 7.396 0 0 1-2.345.896 3.693 3.693 0 0 0-6.293 3.368A10.484 10.484 0 0 1 1.253.676a3.691 3.691 0 0 0 1.143 4.93 3.678 3.678 0 0 1-1.673-.462v.047a3.695 3.695 0 0 0 2.962 3.62 3.698 3.698 0 0 1-1.667.064 3.697 3.697 0 0 0 3.45 2.565A7.41 7.41 0 0 1 0 12.97a10.453 10.453 0 0 0 5.66 1.658c6.794 0 10.508-5.627 10.508-10.507 0-.16-.004-.32-.01-.478A7.506 7.506 0 0 0 18 1.732a7.384 7.384 0 0 1-2.121.581z" fill="#A0A0A0" fill-rule="evenodd"/></svg>