<svg width="18" height="13" viewBox="0 0 18 13" xmlns="http://www.w3.org/2000/svg"><path d="M7.142 8.67L7.14 3.61l4.864 2.539-4.863 2.522zM17.82 2.734s-.176-1.241-.715-1.788C16.42.228 15.653.225 15.3.182 12.782 0 9.004 0 9.004 0h-.008S5.218 0 2.699.182C2.347.224 1.58.228.895.945.355 1.492.18 2.733.18 2.733S0 4.191 0 5.648v1.367C0 8.472.18 9.93.18 9.93s.176 1.241.715 1.788c.685.718 1.584.695 1.985.77 1.44.138 6.12.18 6.12.18s3.782-.005 6.301-.187c.352-.042 1.12-.045 1.804-.763.54-.547.715-1.788.715-1.788S18 8.472 18 7.015V5.648c0-1.457-.18-2.915-.18-2.915z" fill="#A0A0A0" fill-rule="evenodd"/></svg>