<?xml version="1.0" encoding="UTF-8" ?>
<svg version="1.1" xmlns="http://www.w3.org/2000/svg" xmlns:xlink="http://www.w3.org/1999/xlink">
    <defs>
        <symbol id="facebook" width="128px" height="128px" viewBox="0 0 128 128">
            <title>Facebook</title>
            <g stroke="none" stroke-width="1" fill="none" fill-rule="evenodd">
                <g fill="currentColor">
                    <path d="M120.935596,128.00048 C124.837085,128.00048 128,124.837564 128,120.936076 L128,7.06440409 C128,3.16195629 124.837085,0 120.935596,0 L7.06488368,0 C3.16195629,0 0,3.16195629 0,7.06440409 L0,120.936076 C0,124.837564 3.16195629,128.00048 7.06488368,128.00048 L120.935596,128.00048 Z M88.4259085,127.851806 L88.4259085,78.2834769 L105.063947,78.2834769 L107.554953,58.9654731 L88.4259085,58.9654731 L88.4259085,46.6317813 C88.4259085,41.0387683 89.9788305,37.2274432 97.9995429,37.2274432 L108.22926,37.2226473 L108.22926,19.9448318 C106.459083,19.7098313 100.387436,19.1837178 93.3230321,19.1837178 C78.5741102,19.1837178 68.4767603,28.186157 68.4767603,44.7191646 L68.4767603,58.9654731 L51.7960381,58.9654731 L51.7960381,78.2834769 L68.4767603,78.2834769 L68.4767603,127.851806 L88.4259085,127.851806 Z"/>
                </g>
            </g>
        </symbol>

        <symbol id="heart" width="128px" height="128px" viewBox="0 0 128 128">
            <title>Heart</title>
            <path d="M64,123.019336 L10.980664,70 C-3.66022134,55.3591146 -3.66022134,31.6215494 10.980664,16.980664 C25.6215494,2.33977866 49.3591146,2.33977866 64,16.980664 C78.6408854,2.33977866 102.378451,2.33977866 117.019336,16.980664 C131.660221,31.6215494 131.660221,55.3591146 117.019336,70 L64,123.019336 Z M64,106 L108.534055,61.5147186 C118.488648,51.5601248 118.488648,35.4205392 108.534055,25.4659454 C98.5794608,15.5113515 82.4398752,15.5113515 72.4852814,25.4659454 L64,33.9512268 L55.5147186,25.4659454 C45.5601248,15.5113515 29.4205392,15.5113515 19.4659454,25.4659454 C9.51135154,35.4205392 9.51135154,51.5601248 19.4659454,61.5147186 L64,106 Z"
                  fill="currentColor" fill-rule="evenodd"/>
        </symbol>

        <symbol id="next" width="128px" height="128px" viewBox="0 0 128 128">
            <title>Next</title>
            <g stroke="none" stroke-width="1" fill="none" fill-rule="evenodd">
                <g fill="currentColor">
                    <path d="M63.9976297,64.4017447 L0,25 L0,103.811715 L64.0023703,64.4046634 L63.9976297,103.811715 L128,64.4046634 L63.9976297,25 L63.9976297,64.4017447 Z"/>
                </g>
            </g>
        </symbol>

        <symbol id="pause" width="128px" height="128px" viewBox="0 0 128 128">
            <title>Pause</title>
            <g stroke="none" stroke-width="1" fill="none" fill-rule="evenodd">
                <g fill="currentColor">
                    <path d="M15,3.99000747 C15,1.78638719 16.7821387,0 18.9919834,0 L43.299714,0 C45.5044256,0 47.2916975,1.78976973 47.2916975,3.99000747 L47.2916975,123.479994 C47.2916975,125.683614 45.5095587,127.470001 43.299714,127.470001 L18.9919834,127.470001 C16.7872719,127.470001 15,125.680231 15,123.479994 L15,3.99000747 Z M79.5833949,4.00762656 C79.5833949,1.79427553 81.3655337,0 83.5753783,0 L107.883109,0 C110.087821,0 111.875092,1.78973078 111.875092,4.00762656 L111.875092,123.4596 C111.875092,125.672951 110.092954,127.467227 107.883109,127.467227 L83.5753783,127.467227 C81.3706668,127.467227 79.5833949,125.677496 79.5833949,123.4596 L79.5833949,4.00762656 Z"/>
                </g>
            </g>
        </symbol>

        <symbol id="play" width="128px" height="128px" viewBox="0 0 128 128">
            <title>Play</title>
            <path d="M128.139393,64 L20,128 L20,-4.57078819e-13 L128.139393,64 Z M107.182483,64.0000004 C109.021897,65.0425371 32,21.0000004 32,21.0000004 L32,107.000002 L107.182483,64.0000004 Z"
                  stroke="none" fill="currentColor" fill-rule="evenodd"/>
        </symbol>

        <symbol id="plus" width="128px" height="128px" viewBox="0 0 128 128">
            <title>Plus</title>

            <g stroke="none" stroke-width="1" fill="none" fill-rule="evenodd">
                <g id="icon-plus" fill="currentColor">
                    <path d="M57.6,57.6 L0,57.6 L0,69.6 L57.6,69.6 L57.6,128 L69.6,128 L69.6,69.6 L128,69.6 L128,57.6 L69.6,57.6 L69.6,0 L57.6,0 L57.6,57.6 Z"/>
                </g>
            </g>
        </symbol>

        <symbol id="prev" width="128px" height="128px" viewBox="0 0 128 128">
            <title>Previous</title>

            <g stroke="none" stroke-width="1" fill="none" fill-rule="evenodd">
                <g fill="currentColor">
                    <polygon
                            points="64.0023703 64.4017447 128 25 128 103.811715 63.9976297 64.4046634 64.0023703 103.811715 -4.54747351e-13 64.4046634 64.0023703 25"/>
                </g>
            </g>
        </symbol>

        <symbol id="queue" width="128px" height="128px" viewBox="0 0 128 128">
            <title>Queue</title>

            <g id="Icons" stroke="none" stroke-width="1" fill="none" fill-rule="evenodd">
                <g id="icon-queue" fill="currentColor">
                    <path d="M0,24.9933036 C0,19.4741544 4.48053479,15 9.99063018,15 L118.00937,15 C123.527043,15 128,19.484375 128,24.9933036 L128,41.578125 C128,47.0972742 123.519465,51.5714286 118.00937,51.5714286 L9.99063018,51.5714286 C4.47295749,51.5714286 0,47.0870536 0,41.578125 L0,24.9933036 Z M0,76.4879483 C0,72.7476071 3.03781319,69.7154615 6.76895117,69.7154615 L121.231049,69.7154615 C124.969437,69.7154615 128,72.7552179 128,76.4879483 C128,80.2282894 124.962187,83.260435 121.231049,83.260435 L6.76895117,83.260435 C3.03056267,83.260435 0,80.2206786 0,76.4879483 Z M0,106.261023 C0,102.520682 3.03781319,99.4885362 6.76895117,99.4885362 L121.231049,99.4885362 C124.969437,99.4885362 128,102.528293 128,106.261023 C128,110.001364 124.962187,113.03351 121.231049,113.03351 L6.76895117,113.03351 C3.03056267,113.03351 0,109.993753 0,106.261023 Z"/>
                </g>
            </g>
        </symbol>

        <symbol id="repeat" width="128px" height="128px" viewBox="0 0 128 128">
            <title>Repeat</title>

            <g stroke="none" stroke-width="1" fill="none" fill-rule="evenodd">
                <g fill="currentColor">
                    <path d="M38.1989529,105.480515 L79.0796245,105.480515 L96.5004368,105.480515 C113.901129,105.480515 128,91.3786567 128,73.9831328 L128,44.539267 L109.235602,63.3036649 L109.235602,71.2973669 C109.235602,79.0726724 102.936712,85.375803 95.1615475,85.375803 L64.3913551,85.375803 L38.1989529,85.375803 L38.1989529,67.2815621 L6.03141361,95.428159 L38.1989529,123.574756 L38.1989529,105.480515 Z M48.9203755,23.0942408 L31.4995632,23.0942408 C14.0988709,23.0942408 3.80940189e-14,37.1960992 3.80940189e-14,54.591623 L0,84.0354888 L18.7643979,65.2710909 L18.7643979,57.2773889 C18.7643979,49.5020834 25.0632878,43.1989529 32.8384525,43.1989529 L63.6086449,43.1989529 L89.8010471,43.1989529 L89.8010471,61.2931937 L121.968586,33.1465969 L89.8010471,5 L89.8010471,23.0942408 L48.9203755,23.0942408 Z"/>
                </g>
            </g>
        </symbol>

        <symbol id="repeat-track" width="128px" height="128px" viewBox="0 0 128 128">
            <title>Repeat Track</title>

            <g stroke="none" stroke-width="1" fill="none" fill-rule="evenodd">
                <g fill="currentColor">
                    <path d="M32.8384525,43.5497382 C25.0632878,43.5497382 18.7643979,49.8528687 18.7643979,57.6281743 L18.7643979,65.6218763 L1.56319402e-13,84.3862742 L1.56319402e-13,54.9424215 C3.08695478e-13,37.5468845 14.1044802,23.4450262 31.4961123,23.4450262 L47.3578309,23.4450262 L47.3578303,43.5497382 L32.8384525,43.5497382 Z M79.0796245,105.8313 L96.5004368,105.8313 C113.901129,105.8313 128,91.729442 128,74.3339182 L108.900524,74.3339182 C108.900524,82.1092237 102.936712,85.7265883 95.1615475,85.7265883 L64.3913551,85.7265883 L38.1989529,85.7265883 L38.1989529,67.6323475 L6.03141361,95.7789443 L38.1989529,123.925541 L38.1989529,105.8313 L79.0796245,105.8313 Z M92.4816754,71.6963351 C111.727787,71.6963351 127.329843,56.094279 127.329843,36.8481675 C127.329843,17.602056 111.727787,2 92.4816754,2 C73.2355639,2 57.6335079,17.602056 57.6335079,36.8481675 C57.6335079,56.094279 73.2355639,71.6963351 92.4816754,71.6963351 Z M99.2687417,57.7068063 L89.7593924,57.7068063 L89.7593924,27.4344399 L80.4188482,30.1634543 L80.4188482,22.961107 L98.3965825,16.7434555 L99.2687417,16.7434555 L99.2687417,57.7068063 Z"/>
                </g>
            </g>
        </symbol>

        <symbol id="itunes" width="128px" height="128px" viewBox="0 0 128 128">
            <title>iTunes</title>

            <g stroke="none" stroke-width="1" fill="none" fill-rule="evenodd">
                <g fill="currentColor">
                    <path d="M98.5647779,68.0701489 C98.4199715,51.8992866 111.742165,44.0321093 112.351351,43.6658441 C104.806435,32.6126607 93.1120659,31.1024437 89.0025585,30.9820277 C79.1806862,29.9434399 69.6534201,36.887428 64.6501074,36.887428 C59.5469282,36.887428 51.8422261,31.0823743 43.5383249,31.2529636 C32.8526072,31.4185356 22.8559684,37.6350105 17.3732964,47.2883581 C6.05841959,66.9713531 14.4971406,95.8962746 25.3376515,111.806236 C30.7604035,119.598153 37.0969343,128.298207 45.3908489,127.99215 C53.5050037,127.655989 56.5359526,122.794194 66.327865,122.794194 C76.0298975,122.794194 78.8760933,127.99215 87.3347876,127.796474 C96.0431483,127.655989 101.52582,119.969436 106.758826,112.107276 C113.02545,103.176424 115.542086,94.3810402 115.641953,93.9294802 C115.437227,93.8592376 98.7295577,87.4521041 98.5647779,68.0701489 L98.5647779,68.0701489 L98.5647779,68.0701489 L98.5647779,68.0701489 Z M82.5861346,20.5158723 C86.9503015,15.0319279 89.9363105,7.57115462 89.1074184,0 C82.7908609,0.280970616 74.8914191,4.39016587 70.3424991,9.75369423 C66.3178783,14.4800214 62.7226836,22.2267826 63.6514422,29.5119493 C70.7469585,30.0437865 78.0322212,25.914522 82.5861346,20.5158723 L82.5861346,20.5158723 L82.5861346,20.5158723 L82.5861346,20.5158723 Z"/>
                </g>
            </g>
        </symbol>

        <symbol id="link" width="128px" height="128px" viewBox="0 0 128 128">
            <title>Link</title>

            <g stroke="none" stroke-width="1" fill="none" fill-rule="evenodd">
                <g fill="currentColor">
                    <path d="M75.722241,98.9090909 C76.6674505,98.9090909 77.6054115,98.88 78.536124,98.8232727 C78.0852648,99.3323636 77.6155595,99.8312727 77.1284576,100.32 L59.7319632,117.774545 C46.1438514,131.408 24.1140907,131.408 10.5274286,117.774545 C-3.06068323,104.141091 -3.06068323,82.0392727 10.5274286,68.4058182 L27.923923,50.9512727 C28.4110248,50.464 28.9082746,49.9927273 29.4142227,49.5389091 C40.0782737,40.0145455 55.1813303,38.2109091 67.5270424,44.1265455 C70.9990928,45.792 74.2551366,48.0654545 77.1284576,50.9498182 C80.004678,53.8341818 82.2705714,57.1010909 83.9290372,60.5832727 C81.8327596,62.6938182 78.9275451,64 75.722241,64 C74.5392794,64 73.3954599,63.8225455 72.3183269,63.4909091 C71.3818156,61.9563636 70.2510435,60.5076364 68.9289099,59.1796364 C67.6038769,57.8516364 66.1599679,56.7185455 64.6319758,55.7774545 C55.698876,50.2850909 43.8605615,51.4181818 36.1249204,59.1796364 L30.9030726,64.4203636 L18.728426,76.6341818 C9.67065124,85.7221818 9.67065124,100.458182 18.728426,109.549091 C27.7876504,118.637091 42.4746408,118.637091 51.5324156,109.549091 L63.7056125,97.3338182 C67.5386401,98.3607273 71.568828,98.9090909 75.722241,98.9090909 L75.722241,98.9090909 Z M68.5171929,10.224 L51.1206985,27.6785455 C50.6335967,28.1672727 50.165341,28.6661818 49.7130322,29.1752727 C50.6451943,29.1185455 51.5817056,29.0909091 52.5269151,29.0909091 C56.6817779,29.0909091 60.710516,29.6392727 64.5420939,30.6676364 L76.7152909,18.4538182 C85.775965,9.36436364 100.462955,9.36436364 109.52073,18.4538182 C118.578505,27.5418182 118.578505,42.2778182 109.52073,51.3672727 L97.3460835,63.5810909 L92.1242358,68.8218182 C84.3885946,76.5803636 72.5502802,77.7134545 63.6157306,72.2225455 C62.0862888,71.2829091 60.6438295,70.1483636 59.3187965,68.8218182 C57.9952132,67.4923636 56.8658908,66.0436364 55.9293795,64.5105455 C54.855146,64.1789091 53.7113265,64 52.5269151,64 C49.3201614,64 46.4178462,65.3047273 44.3186692,67.4152727 C45.9785847,70.8989091 48.2444781,74.1629091 51.1192488,77.0487273 C53.9940195,79.9316364 57.2486137,82.208 60.7192143,83.872 C73.0649265,89.7890909 88.167983,87.9854545 98.8320341,78.4596364 C99.3423312,78.0058182 99.8366816,77.536 100.323783,77.0472727 L117.720278,59.5927273 C131.309839,45.9592727 131.309839,23.8574545 117.721728,10.224 C104.133616,-3.408 82.1053047,-3.408 68.5171929,10.224 Z"/>
                </g>
            </g>
        </symbol>

        <symbol id="twitter" width="128px" height="128px" viewBox="0 0 128 128">
            <title>Twitter</title>

            <g stroke="none" stroke-width="1" fill="none" fill-rule="evenodd">
                <g fill="currentColor">
                    <path d="M112.917078,28.4491166 C118.339252,25.1989027 122.502915,20.0524964 124.463718,13.9205384 C119.389883,16.9296317 113.769662,19.1151688 107.787995,20.293149 C102.997418,15.1893485 96.1725301,12 88.6195984,12 C74.1163027,12 62.358038,23.7577966 62.358038,38.2601558 C62.358038,40.3183438 62.5907312,42.3226892 63.0383262,44.2446322 C41.2129193,43.1495227 21.8628626,32.6947145 8.910699,16.8069644 C6.65025056,20.6854969 5.35522148,25.1965617 5.35522148,30.0091444 C5.35522148,39.119763 9.99176268,47.1577453 17.0381067,51.8668569 C12.733048,51.7306119 8.68409232,50.5493544 5.14312886,48.5824646 C5.14125608,48.6920224 5.14125608,48.8020484 5.14125608,48.9125425 C5.14125608,61.6362266 14.1933502,72.2502213 26.2067815,74.6623651 C24.0029847,75.2625919 21.6830755,75.5833059 19.2877867,75.5833059 C17.5957277,75.5833059 15.9504883,75.4189692 14.3473865,75.1123011 C17.6888986,85.5455723 27.3871027,93.1378324 38.8784959,93.349925 C29.8910128,100.392992 18.5677018,104.591302 6.26445737,104.591302 C4.14493581,104.591302 2.05444237,104.46723 0,104.224705 C11.6215516,111.67557 25.425363,116.022766 40.2554592,116.022766 C88.5582647,116.022766 114.971989,76.0074911 114.971989,41.3053001 C114.971989,40.1666484 114.946706,39.0340832 114.896141,37.9080727 C120.026629,34.2055818 124.479169,29.5802773 128,24.3140129 C123.29042,26.4026336 118.229226,27.8142434 112.917078,28.4491166 Z"/>
                </g>
            </g>
        </symbol>

        <symbol id="youtube" width="128px" height="128px" viewBox="0 0 128 128">
            <title>YouTube</title>

            <g stroke="none" stroke-width="1" fill="none" fill-rule="evenodd">
                <g fill="currentColor">
                    <path d="M50.7861333,80.6587036 L50.7804444,44.6702529 L85.3660444,62.7263874 L50.7861333,80.6587036 Z M126.722844,38.435215 C126.722844,38.435215 125.471289,29.6085305 121.632711,25.720349 C116.767289,20.6196013 111.310222,20.5954069 108.808533,20.2965349 C90.8970667,19 64.0284444,19 64.0284444,19 L63.9715556,19 C63.9715556,19 37.1043556,19 19.1914667,20.2965349 C16.6897778,20.5954069 11.2355556,20.6196013 6.36728889,25.720349 C2.52871111,29.6085305 1.28,38.435215 1.28,38.435215 C1.28,38.435215 0,48.8003784 0,59.1655418 L0,68.8845725 C0,79.2483127 1.28,89.613476 1.28,89.613476 C1.28,89.613476 2.52871111,98.4401605 6.36728889,102.328342 C11.2355556,107.430513 17.6312889,107.266845 20.48,107.801968 C30.7214222,108.785399 64,109.089964 64,109.089964 C64,109.089964 90.8970667,109.048691 108.808533,107.753579 C111.310222,107.454707 116.767289,107.430513 121.632711,102.328342 C125.471289,98.4401605 126.722844,89.613476 126.722844,89.613476 C126.722844,89.613476 128,79.2483127 128,68.8845725 L128,59.1655418 C128,48.8003784 126.722844,38.435215 126.722844,38.435215 L126.722844,38.435215 Z"/>
                </g>
            </g>
        </symbol>

        <symbol id="amazon" width="128px" height="128px" viewBox="0 0 128 128">
            <title>Amazon</title>

            <g stroke="none" stroke-width="1" fill="none" fill-rule="evenodd">
                <g fill="currentColor">
                    <path d="M110.764,105.408 C58.024,130.508 25.292,109.508 4.34,96.752 C3.044,95.948 0.84,96.94 2.752,99.136 C9.732,107.6 32.608,128 62.468,128 C92.348,128 110.124,111.696 112.348,108.852 C114.556,106.032 112.996,104.476 110.764,105.408 L110.764,105.408 L110.764,105.408 Z M125.576,97.228 C124.16,95.384 116.964,95.04 112.436,95.596 C107.9,96.136 101.092,98.908 101.684,100.572 C101.988,101.196 102.608,100.916 105.724,100.636 C108.848,100.324 117.6,99.22 119.424,101.604 C121.256,104.004 116.632,115.44 115.788,117.284 C114.972,119.128 116.1,119.604 117.632,118.376 C119.144,117.148 121.88,113.968 123.716,109.468 C125.54,104.944 126.652,98.632 125.576,97.228 L125.576,97.228 L125.576,97.228 Z"/>
                    <path d="M97.416,65.564 L97.416,23.532 C97.416,16.312 90.432,0 65.332,0 C40.236,0 26.884,15.684 26.884,29.812 L47.86,31.688 C47.86,31.688 52.532,17.568 63.376,17.568 C74.22,17.568 73.476,26.352 73.476,28.252 L73.476,37.384 C59.584,37.852 25.088,41.82 25.088,70.908 C25.088,102.188 64.572,103.5 77.52,83.284 C78.02,84.104 78.588,84.908 79.3,85.66 C84.064,90.668 90.42,96.636 90.42,96.636 L106.612,80.636 C106.62,80.632 97.416,73.408 97.416,65.564 L97.416,65.564 L97.416,65.564 L97.416,65.564 Z M49.436,67.04 C49.436,53.604 63.832,50.88 73.48,50.56 L73.48,62.124 C73.476,85.032 49.436,81.564 49.436,67.04 L49.436,67.04 L49.436,67.04 L49.436,67.04 Z"/>
                </g>
            </g>
        </symbol>
    </defs>
</svg>
