<svg width="125" height="40" viewBox="152 32 125 40" xmlns="http://www.w3.org/2000/svg">
    <defs>
        <radialGradient cx="35.581%" cy="11.348%" fx="35.581%" fy="11.348%" r="81.257%" id="a">
            <stop stop-color="#E87FB4" offset="0%"/>
            <stop stop-color="#DA589A" offset="54.422%"/>
            <stop stop-color="#9B50BA" offset="100%"/>
        </radialGradient>
    </defs>
    <g fill="none" fill-rule="evenodd">
        <path fill="#fff" d="M152 32l33 19.77-33 19.768"/>
        <path d="M201.883 60.76c-.612 0-1.094-.088-1.446-.264V59.08c.463.13.945.195 1.446.195.644 0 1.134-.195 1.47-.586.335-.39.502-.953.502-1.689V42.723h1.66v14.14c0 1.237-.312 2.196-.937 2.876-.625.68-1.523 1.02-2.695 1.02zm8.941-14.463v6.943c0 .873.199 1.524.596 1.953.397.43 1.019.645 1.865.645 1.12 0 1.938-.306 2.456-.918.518-.612.776-1.611.776-2.998v-5.625h1.621V57h-1.337l-.235-1.436h-.088a3.231 3.231 0 0 1-1.382 1.211c-.589.28-1.26.42-2.016.42-1.302 0-2.277-.309-2.925-.927-.648-.619-.972-1.608-.972-2.97v-7.001h1.641zm12.593 5.224c.28-.397.707-.917 1.28-1.562l3.457-3.662h1.924l-4.336 4.56L230.38 57h-1.962l-3.78-5.059-1.22 1.055V57h-1.602V41.805h1.602v8.056c0 .358-.027.912-.079 1.66h.079zm13.258 5.674c-1.582 0-2.83-.481-3.745-1.445-.915-.964-1.372-2.301-1.372-4.014 0-1.725.425-3.095 1.274-4.111.85-1.016 1.99-1.523 3.423-1.523 1.341 0 2.402.44 3.184 1.323.781.882 1.172 2.046 1.172 3.491v1.025h-7.373c.032 1.257.35 2.21.952 2.862.602.65 1.45.976 2.544.976a8.62 8.62 0 0 0 3.418-.722v1.445a8.579 8.579 0 0 1-1.626.532c-.511.108-1.128.161-1.85.161zm-.44-9.736c-.859 0-1.544.28-2.055.84-.511.56-.812 1.334-.903 2.324h5.595c0-1.022-.228-1.805-.683-2.349-.456-.543-1.107-.815-1.953-.815zm12.36-1.338c1.406 0 2.498.48 3.276 1.44.778.96 1.167 2.32 1.167 4.078 0 1.757-.392 3.123-1.177 4.096-.784.974-1.873 1.46-3.266 1.46a4.632 4.632 0 0 1-1.91-.385 3.59 3.59 0 0 1-1.45-1.187h-.117L244.776 57h-1.162V41.805h1.621v3.691c0 .827-.026 1.57-.078 2.227h.078c.756-1.068 1.875-1.602 3.36-1.602zm-.235 1.358c-1.106 0-1.904.317-2.392.952-.488.634-.733 1.704-.733 3.208 0 1.504.251 2.58.752 3.227.502.648 1.306.972 2.412.972.997 0 1.739-.363 2.227-1.089.488-.726.732-1.77.732-3.13 0-1.393-.244-2.431-.732-3.115-.488-.684-1.243-1.025-2.266-1.025zm16.988 4.16c0 1.744-.439 3.107-1.318 4.087-.879.98-2.093 1.47-3.642 1.47-.958 0-1.807-.225-2.55-.675-.742-.449-1.314-1.093-1.718-1.933-.404-.84-.606-1.823-.606-2.95 0-1.744.437-3.103 1.309-4.076.872-.974 2.083-1.46 3.633-1.46 1.497 0 2.687.498 3.57 1.494.881.996 1.322 2.343 1.322 4.043zm-8.154 0c0 1.367.274 2.409.82 3.125.547.716 1.351 1.074 2.413 1.074 1.06 0 1.866-.357 2.417-1.07.55-.712.825-1.756.825-3.13 0-1.36-.275-2.394-.825-3.1-.55-.706-1.363-1.06-2.437-1.06-1.061 0-1.862.349-2.402 1.045-.54.697-.81 1.735-.81 3.116zm13.414-.118l-3.72-5.224h1.845l2.822 4.101 2.813-4.101h1.826l-3.72 5.224L276.388 57h-1.836l-2.998-4.336L268.528 57h-1.836l3.916-5.479z"
              fill="#fff"/>
        <path fill="url(#a)" d="M0 0l33 19.77L0 39.537" transform="translate(152 32)"/>
    </g>
</svg>
