<svg width="102" height="33" viewBox="0 0 102 33" xmlns="http://www.w3.org/2000/svg"><defs><radialGradient cx="35.581%" cy="11.348%" fx="35.581%" fy="11.348%" r="81.257%" id="a"><stop stop-color="#E87FB4" offset="0%"/><stop stop-color="#DA589A" offset="54.422%"/><stop stop-color="#9B50BA" offset="100%"/></radialGradient></defs><g fill="none" fill-rule="evenodd"><path d="M40.87 24.016c-.502 0-.896-.073-1.184-.218V22.63c.378.108.773.161 1.184.161.528 0 .93-.16 1.204-.483.275-.322.412-.787.412-1.394V9.135h1.36v11.666c0 1.02-.256 1.812-.768 2.373-.512.561-1.248.842-2.208.842zm7.326-11.932v5.728c0 .72.162 1.257.488 1.612.325.354.834.531 1.528.531.917 0 1.588-.252 2.012-.757.424-.505.636-1.33.636-2.473v-4.64h1.328v8.83h-1.096L52.9 19.73h-.072c-.272.435-.65.768-1.132.999-.483.23-1.033.346-1.652.346-1.067 0-1.866-.255-2.397-.765-.53-.51-.796-1.327-.796-2.45v-5.776h1.345zm10.318 4.31c.229-.327.578-.757 1.048-1.289l2.832-3.02h1.576l-3.552 3.762 3.8 5.067H62.61l-3.096-4.173-1 .87v3.303H57.2V8.378h1.313v6.647c0 .295-.022.752-.064 1.37h.064zm10.862 4.681c-1.296 0-2.32-.397-3.069-1.192-.75-.795-1.124-1.899-1.124-3.311 0-1.424.348-2.554 1.044-3.392.696-.838 1.631-1.257 2.805-1.257 1.099 0 1.968.364 2.608 1.092.64.727.96 1.687.96 2.88v.846h-6.04c.026 1.036.286 1.823.78 2.36.493.538 1.188.806 2.084.806.944 0 1.877-.199 2.8-.596v1.192c-.47.204-.913.35-1.332.44a7.437 7.437 0 0 1-1.516.132zm-.36-8.032c-.704 0-1.266.23-1.684.693-.42.462-.666 1.1-.74 1.917h4.584c0-.843-.187-1.489-.56-1.937-.373-.449-.907-.673-1.6-.673zm10.126-1.104c1.152 0 2.047.396 2.684 1.188.638.793.956 1.914.956 3.364s-.321 2.577-.964 3.38c-.643.803-1.535 1.204-2.676 1.204-.57 0-1.092-.106-1.564-.318a2.946 2.946 0 0 1-1.189-.979h-.096l-.28 1.136h-.952V8.378h1.328v3.045c0 .683-.02 1.295-.064 1.837h.064c.62-.88 1.537-1.321 2.753-1.321zm-.192 1.12c-.907 0-1.56.262-1.96.785-.4.524-.6 1.406-.6 2.647 0 1.24.205 2.128.616 2.663.41.534 1.069.801 1.976.801.816 0 1.424-.299 1.824-.898.4-.599.6-1.46.6-2.582 0-1.15-.2-2.006-.6-2.57-.4-.564-1.019-.846-1.856-.846zm13.918 3.432c0 1.44-.36 2.563-1.08 3.372-.72.808-1.715 1.212-2.984 1.212-.784 0-1.48-.185-2.088-.556-.609-.37-1.078-.902-1.409-1.595-.33-.693-.496-1.504-.496-2.433 0-1.44.358-2.56 1.072-3.364.715-.803 1.707-1.204 2.977-1.204 1.227 0 2.202.41 2.924 1.233.723.821 1.084 1.933 1.084 3.335zm-6.68 0c0 1.128.224 1.987.672 2.578.448.591 1.106.886 1.976.886.87 0 1.53-.294 1.98-.882.45-.588.676-1.449.676-2.582 0-1.123-.225-1.975-.676-2.558-.45-.583-1.116-.874-1.996-.874-.87 0-1.526.287-1.968.862-.443.575-.665 1.431-.665 2.57zm10.99-.097l-3.049-4.31h1.512l2.313 3.384 2.304-3.384h1.496l-3.048 4.31 3.208 4.52h-1.504l-2.456-3.577-2.48 3.577h-1.505l3.209-4.52z" fill="#000"/><path fill="url(#a)" d="M0 0l27.88 16.5L0 33"/></g></svg>