<svg width="17" height="20" viewBox="32 17 17 20" xmlns="http://www.w3.org/2000/svg"><path d="M45.878 27.603c-.022-2.48 2.02-3.685 2.114-3.741-1.157-1.695-2.95-1.927-3.58-1.945-1.506-.16-2.967.905-3.734.905-.782 0-1.963-.89-3.236-.864-1.639.026-3.171.979-4.012 2.459-1.735 3.018-.44 7.452 1.221 9.891.831 1.195 1.803 2.529 3.075 2.482 1.244-.052 1.708-.797 3.21-.797 1.487 0 1.923.797 3.22.767 1.335-.022 2.176-1.2 2.978-2.405.96-1.37 1.347-2.718 1.362-2.787-.031-.011-2.593-.993-2.618-3.965zm-2.45-7.29c.67-.841 1.127-1.985 1-3.146-.968.043-2.18.673-2.877 1.495-.617.725-1.168 1.913-1.026 3.03 1.088.081 2.205-.552 2.903-1.38z" fill="#FFF" fill-rule="evenodd"/></svg>