<?xml version="1.0" encoding="UTF-8" ?>
<svg xmlns="http://www.w3.org/2000/svg">
    <defs>
        <symbol id="twitter-icon" width="18" height="15" viewBox="0 0 18 15">
            <title>Twitter</title>
            <desc>Twitter Icon</desc>
            <path d="M15.879 2.313A3.704 3.704 0 0 0 17.503.27a7.396 7.396 0 0 1-2.345.896 3.693 3.693 0 0 0-6.293 3.368A10.484 10.484 0 0 1 1.253.676a3.691 3.691 0 0 0 1.143 4.93 3.678 3.678 0 0 1-1.673-.462v.047a3.695 3.695 0 0 0 2.962 3.62 3.698 3.698 0 0 1-1.667.064 3.697 3.697 0 0 0 3.45 2.565A7.41 7.41 0 0 1 0 12.97a10.453 10.453 0 0 0 5.66 1.658c6.794 0 10.508-5.627 10.508-10.507 0-.16-.004-.32-.01-.478A7.506 7.506 0 0 0 18 1.732a7.384 7.384 0 0 1-2.121.581z"
                  fill="currentColor" fill-rule="evenodd"/>

        </symbol>
        <symbol id="facebook-icon" width="16" height="16" viewBox="0 0 16 16">
            <title>Facebook</title>
            <desc>Facebook Icon</desc>
            <path d="M15.117 16a.883.883 0 0 0 .883-.883V.883A.883.883 0 0 0 15.117 0H.883A.883.883 0 0 0 0 .883v14.234c0 .488.395.883.883.883h14.234zm-4.064-.019V9.785h2.08l.311-2.414h-2.39V5.829c0-.7.193-1.176 1.196-1.176h1.279v-2.16c-.222-.03-.98-.095-1.864-.095-1.843 0-3.105 1.125-3.105 3.192v1.78H6.475v2.415H8.56v6.196h2.493z"
                  fill="currentColor" fill-rule="evenodd"/>
        </symbol>
        <symbol id="itunes-icon" width="16" height="20" viewBox="0 0 16 20">
            <title>iTunes</title>
            <desc>iTunes Icon</desc>
            <path d="M13.364 10.509c-.023-2.497 2.034-3.711 2.128-3.768-1.165-1.706-2.97-1.94-3.605-1.958-1.516-.16-2.987.912-3.759.912-.788 0-1.977-.897-3.26-.87C3.22 4.85 1.677 5.81.83 7.3c-1.747 3.039-.444 7.504 1.229 9.96.837 1.203 1.815 2.546 3.096 2.5 1.252-.053 1.72-.803 3.232-.803 1.498 0 1.937.802 3.243.772 1.344-.022 2.19-1.208 2.999-2.422.967-1.379 1.356-2.737 1.371-2.806-.032-.011-2.61-1-2.636-3.992zm-2.467-7.342C11.57 2.321 12.032 1.17 11.904 0c-.975.043-2.195.678-2.897 1.506-.622.73-1.177 1.925-1.033 3.05 1.095.082 2.22-.555 2.923-1.389z"
                  fill="currentColor" fill-rule="evenodd"/>
        </symbol>
        <symbol id="link-icon" width="16" height="16" viewBox="0 0 16 16">
            <title>Link</title>
            <desc>Link Icon</desc>
            <path d="M14.118 11.765a.908.908 0 0 0-.275-.667l-2.04-2.04a.908.908 0 0 0-.666-.274.934.934 0 0 0-.706.314l.187.181c.104.102.174.172.21.211.036.04.085.102.147.186a.789.789 0 0 1 .162.52.908.908 0 0 1-.274.667.908.908 0 0 1-.667.274.789.789 0 0 1-.52-.162 2.334 2.334 0 0 1-.186-.147 6.063 6.063 0 0 1-.21-.21 26.951 26.951 0 0 0-.182-.187.951.951 0 0 0-.323.716c0 .261.091.484.274.667l2.02 2.03a.904.904 0 0 0 .666.264.944.944 0 0 0 .667-.255l1.441-1.431a.896.896 0 0 0 .275-.657zM7.225 4.853a.908.908 0 0 0-.274-.667l-2.02-2.03a.908.908 0 0 0-.666-.274.947.947 0 0 0-.667.265L2.157 3.578a.896.896 0 0 0-.275.657c0 .262.092.484.275.667l2.04 2.04a.904.904 0 0 0 .666.264c.274 0 .51-.101.706-.304l-.187-.181a6.063 6.063 0 0 1-.21-.211 2.334 2.334 0 0 1-.147-.186.789.789 0 0 1-.162-.52c0-.262.091-.484.274-.667a.908.908 0 0 1 .667-.274.789.789 0 0 1 .52.162c.084.062.147.11.186.147.039.036.11.106.21.21l.182.187a.951.951 0 0 0 .323-.716zM16 11.765c0 .784-.278 1.447-.833 1.99l-1.442 1.431c-.542.543-1.205.814-1.99.814-.79 0-1.457-.278-2-.833l-2.02-2.03c-.542-.542-.813-1.206-.813-1.99 0-.804.288-1.487.863-2.049l-.863-.863a2.746 2.746 0 0 1-2.04.863 2.723 2.723 0 0 1-2-.823L.825 6.235a2.723 2.723 0 0 1-.824-2c0-.784.278-1.447.833-1.99L2.275.814C2.817.27 3.48 0 4.265 0c.79 0 1.457.278 2 .833l2.02 2.03c.542.542.813 1.206.813 1.99 0 .804-.288 1.487-.863 2.049l.863.863a2.746 2.746 0 0 1 2.04-.863c.784 0 1.45.274 2 .823l2.038 2.04c.55.549.824 1.215.824 2z"
                  fill="currentColor" fill-rule="evenodd"/>
        </symbol>
        <symbol id="youtube-icon" width="18" height="13" viewBox="0 0 18 13" xmlns="http://www.w3.org/2000/svg">
            <title>YouTube</title>
            <desc>YouTube Icon</desc>
            <path d="M7.142 8.67L7.14 3.61l4.864 2.539-4.863 2.522zM17.82 2.734s-.176-1.241-.715-1.788C16.42.228 15.653.225 15.3.182 12.782 0 9.004 0 9.004 0h-.008S5.218 0 2.699.182C2.347.224 1.58.228.895.945.355 1.492.18 2.733.18 2.733S0 4.191 0 5.648v1.367C0 8.472.18 9.93.18 9.93s.176 1.241.715 1.788c.685.718 1.584.695 1.985.77 1.44.138 6.12.18 6.12.18s3.782-.005 6.301-.187c.352-.042 1.12-.045 1.804-.763.54-.547.715-1.788.715-1.788S18 8.472 18 7.015V5.648c0-1.457-.18-2.915-.18-2.915z"
                  fill="currentColor" fill-rule="evenodd"/>
        </symbol>
    </defs>
</svg>
