<svg width="128" height="91" viewBox="0 0 128 91" xmlns="http://www.w3.org/2000/svg"><path d="M0 1.992C0 .892.886 0 1.998 0h124.004C127.106 0 128 .904 128 1.992V34.58a1.99 1.99 0 0 1-1.998 1.992H1.998A2.003 2.003 0 0 1 0 34.58V1.992zm0 56.496a6.775 6.775 0 0 1 6.769-6.773h114.462c3.738 0 6.769 3.04 6.769 6.773a6.775 6.775 0 0 1-6.769 6.772H6.769C3.031 65.26 0 62.22 0 58.488zM0 84.26a6.775 6.775 0 0 1 6.769-6.772h114.462c3.738 0 6.769 3.04 6.769 6.772a6.775 6.775 0 0 1-6.769 6.773H6.769C3.031 91.034 0 87.994 0 84.26z" fill="#FFF" fill-rule="evenodd"/></svg>