<svg width="191" height="182" viewBox="0 0 191 182" xmlns="http://www.w3.org/2000/svg"><title>repeat-track</title><g fill="none" fill-rule="evenodd"><path d="M49.001 62C37.4 62 28 71.405 28 83.008v11.928l-28 28V79c0-25.957 21.047-47 46.998-47h23.669v30H49zm69 92.936h25.996c25.965 0 47.003-21.043 47.003-47h-28.5c0 11.602-8.9 17-20.501 17H57v-27l-48 42 48 42v-27h61.002zM138 104c28.719 0 52-23.281 52-52S166.719 0 138 0 86 23.281 86 52s23.281 52 52 52z" fill="#D55EA3"/><path fill="#FFF" d="M148.128 83.125h-14.19V37.953L120 42.025V31.278L146.826 22h1.302z"/></g></svg>