<svg class="twitter-icon" width="18" height="15" viewBox="1270 43 18 15" xmlns="http://www.w3.org/2000/svg">
    <defs>
        <g id="icon">
            <symbol width="18" height="15" viewBox="1270 43 18 15">
                <path d="M1285.879 45.313a3.704 3.704 0 0 0 1.624-2.043 7.396 7.396 0 0 1-2.345.896 3.693 3.693 0 0 0-6.293 3.368 10.484 10.484 0 0 1-7.612-3.858 3.691 3.691 0 0 0 1.143 4.93 3.678 3.678 0 0 1-1.673-.462v.047a3.695 3.695 0 0 0 2.962 3.62 3.698 3.698 0 0 1-1.667.064 3.697 3.697 0 0 0 3.45 2.565 7.41 7.41 0 0 1-5.468 1.53 10.453 10.453 0 0 0 5.66 1.658c6.794 0 10.508-5.627 10.508-10.507 0-.16-.004-.32-.01-.478a7.506 7.506 0 0 0 1.842-1.911 7.384 7.384 0 0 1-2.121.581z" fill-rule="evenodd"/>
            </symbol>
        </g>
    </defs>
</svg>
